<svg xmlns="http://www.w3.org/2000/svg" width="151.518" height="27" viewBox="0 0 151.518 27">
  <g id="logo" transform="translate(-3.482 -8)">
    <g id="コンポーネント_9_1" data-name="コンポーネント 9 – 1" transform="translate(3.482 8)">
      <path id="match" d="M20.988,0H15.012V-15.012a2.875,2.875,0,0,0-.882-2.106A2.916,2.916,0,0,0,11.988-18a2.875,2.875,0,0,0-2.106.882A2.875,2.875,0,0,0,9-15.012V0H2.988V-20.988H9V-18a3.65,3.65,0,0,1,.936-2.25,2.811,2.811,0,0,1,2.052-.738h3.024a5.053,5.053,0,0,1,4.5,2.124,4.445,4.445,0,0,1,1.836-1.6,6.242,6.242,0,0,1,2.664-.522H27a5.808,5.808,0,0,1,4.23,1.764,5.72,5.72,0,0,1,1.782,4.212V0H27V-15.012a2.893,2.893,0,0,0-.882-2.088,2.846,2.846,0,0,0-2.106-.9,2.934,2.934,0,0,0-2.124.882,2.846,2.846,0,0,0-.9,2.106ZM51.012-11.988v-3.024a2.875,2.875,0,0,0-.882-2.106A2.916,2.916,0,0,0,47.988-18H45q-2.664,0-2.988,2.988H38.988q.72-5.976,6.012-5.976h6.012a5.749,5.749,0,0,1,4.212,1.764,5.749,5.749,0,0,1,1.764,4.212V0H51.012V-2.988Q50.652,0,47.988,0H45a5.808,5.808,0,0,1-4.23-1.764,5.761,5.761,0,0,1-1.782-4.248,5.72,5.72,0,0,1,1.782-4.212A5.808,5.808,0,0,1,45-11.988Zm0,2.988H47.988a2.875,2.875,0,0,0-2.106.882A2.875,2.875,0,0,0,45-6.012a2.934,2.934,0,0,0,.882,2.124,2.846,2.846,0,0,0,2.106.9,2.887,2.887,0,0,0,2.142-.9,2.934,2.934,0,0,0,.882-2.124ZM66.024-27H72v6.012h3.024V-18H72V-6.012a2.706,2.706,0,0,0,.972,2.25,2.953,2.953,0,0,0,1.764.774h.288V0H72a5.749,5.749,0,0,1-4.212-1.764,5.79,5.79,0,0,1-1.764-4.248V-18H63v-2.988h3.024ZM96.012-15.012H93.024Q92.664-18,90-18a2.875,2.875,0,0,0-2.106.882,2.875,2.875,0,0,0-.882,2.106v9a2.934,2.934,0,0,0,.882,2.124,2.846,2.846,0,0,0,2.106.9q2.664,0,3.024-3.024h2.988Q95.652,0,90,0H87.012a5.808,5.808,0,0,1-4.23-1.764A5.761,5.761,0,0,1,81-6.012v-9a5.72,5.72,0,0,1,1.782-4.212,5.808,5.808,0,0,1,4.23-1.764H90Q95.688-20.988,96.012-15.012ZM101.988,0V-27H108v9a3.65,3.65,0,0,1,.936-2.25,2.811,2.811,0,0,1,2.052-.738h3.024a5.749,5.749,0,0,1,4.212,1.764,5.749,5.749,0,0,1,1.764,4.212V0h-5.976V-15.012a2.875,2.875,0,0,0-.882-2.106A2.916,2.916,0,0,0,110.988-18a2.875,2.875,0,0,0-2.106.882A2.875,2.875,0,0,0,108-15.012V0Z" transform="translate(-2.988 27)" fill="#00bcae"/>
      <path id="Icon_feather-message-circle" data-name="Icon feather-message-circle" d="M26,14.179a9.179,9.179,0,0,1-1.075,4.327,10.218,10.218,0,0,1-9.08,5.352,10.416,10.416,0,0,1-4.54-1.025L4.5,25l2.27-6.49a9.179,9.179,0,0,1-1.075-4.327A9.642,9.642,0,0,1,11.31,5.525,10.416,10.416,0,0,1,15.85,4.5h.6A9.9,9.9,0,0,1,26,13.609Z" transform="translate(124.018 0.252)" fill="none" stroke="#000" stroke-linecap="round" stroke-linejoin="round" stroke-width="3"/>
    </g>
  </g>
</svg>
