<svg xmlns="http://www.w3.org/2000/svg" data-name="Layer 1" width="809.675" height="462.577"><path d="M133.088 210.327v-130a7 7 0 1114 0v130a7 7 0 01-14 0zm-16.75 0v-130a7 7 0 1114 0v130a7 7 0 01-14 0zm-16.75 0v-130a7 7 0 1114 0v130a7 7 0 01-14 0z" fill="#f0f0f0"/><path d="M731.992 417.964a24.44 24.44 0 01-8.27-1.436l-.41-.147.189-.906c-4.752-9.6-3.091-22.753 4.253-33.567 6.676-9.831 16.829-16.979 25.786-23.284a6.967 6.967 0 0110.847 7.029l-3.203 16.434c-2.311 11.855-5.061 23.076-13.216 30.073a24.904 24.904 0 01-15.976 5.804zm20.977 28.397a18.621 18.621 0 01-15.564-8.565l-.232-.362.553-.488c1.433-7.818 8.173-14.784 17.223-17.78 8.226-2.723 17.306-2.278 25.312-1.886a5.35 5.35 0 013.323 9.314l-9.008 8.131c-6.546 5.907-13.074 11.241-20.95 11.623q-.329.013-.657.013z" fill="#e6e6e6"/><path d="M725.013 455.053c-1.33-9.905-2.698-19.938-1.765-29.95.83-8.89 3.483-17.575 8.885-24.695a40.516 40.516 0 0110.31-9.552c1.031-.665 1.98 1.005.954 1.668a38.87 38.87 0 00-15.112 18.64c-3.29 8.555-3.819 17.88-3.252 26.968.343 5.495 1.07 10.955 1.802 16.408a1.004 1.004 0 01-.66 1.187.948.948 0 01-1.162-.674z" fill="#f2f2f2"/><path d="M721.254 460.747c6.403-11.581 13.83-24.453 27.099-28.567a29.613 29.613 0 0111.398-1.203c1.21.107.908 2.014-.3 1.907a27.633 27.633 0 00-18.19 4.92c-5.129 3.569-9.122 8.53-12.502 13.792-2.07 3.223-3.924 6.582-5.78 9.938-.592 1.072-2.325.298-1.725-.787z" fill="#f2f2f2"/><path d="M718.373 460.577l6.465.148-38.98-208.237-6.465 1.218 10.179 54.02h-32.794l10.179-54.02-6.465-1.218-38.654 208.237 6.139-.148 20.322-107.852h49.752zm-68.567-115.852l5.465-29h35.808l5.464 29z" fill="#cacaca"/><path d="M436.088 213.644V145.26c0-2.03 3.14-3.682 7-3.682s7 1.652 7 3.682v68.385c0 2.03-3.14 3.683-7 3.683s-7-1.652-7-3.683zm-16.75 0V145.26c0-2.03 3.14-3.682 7-3.682s7 1.652 7 3.682v68.385c0 2.03-3.14 3.683-7 3.683s-7-1.652-7-3.683zm-16.75 0V145.26c0-2.03 3.14-3.682 7-3.682s7 1.652 7 3.682v68.385c0 2.03-3.14 3.683-7 3.683s-7-1.652-7-3.683z" fill="#f0f0f0"/><path d="M543.502 163.354a1.5 1.5 0 00-.657-1.028l-52.772-34.84a3.954 3.954 0 001.894-1.659 4.012 4.012 0 00-1.464-5.464l-4.33-2.5a4.011 4.011 0 00-5.464 1.464 3.939 3.939 0 00-.507 1.643l-38.094-25.148a23.059 23.059 0 00-14.27-13.156V71.577h-14v11.089a23.007 23.007 0 00-16 21.911v3h14a9 9 0 0018 0h14v-3a23.123 23.123 0 00-.405-4.285l96.369 63.62-40.031 48.67c-.311-.002-.62-.004-.933-.004-3.194 0-6.289.075-9.238.205a3.957 3.957 0 00.229-1.544 4.012 4.012 0 00-4.203-3.786l-4.993.26a4.012 4.012 0 00-3.787 4.203 3.932 3.932 0 00.542 1.772c-8.829.938-14.55 2.231-14.55 2.89 0 1.078 15.363.051 34.592.002a1.495 1.495 0 002.566.45l.37-.45c19.173.053 34.472 1.074 34.472-.003 0-1.014-13.602-3.538-31.226-3.943l39.566-48.104a1.5 1.5 0 00.324-1.176z" fill="#ccc"/><path d="M544.945 461.078H421.73a9.403 9.403 0 01-9.391-9.393V249.47a8.401 8.401 0 00-8.392-8.391H115.73a8.401 8.401 0 00-8.392 8.391v202.216a9.403 9.403 0 01-9.392 9.393H93.73a9.403 9.403 0 01-9.392-9.393V238.578a22.525 22.525 0 0122.5-22.5h425a22.526 22.526 0 0122.5 22.5v213.107a9.404 9.404 0 01-9.393 9.393z" fill="#e4e4e4"/><path fill="#fff" d="M412.838 268.577h141v6h-141zm0 81h141v6h-141z"/><path d="M296.121 215.09l-4.052-1.706-2.78-20.315h-37.02l-3.014 20.232-3.625 1.813a.861.861 0 00.385 1.63h49.772a.86.86 0 00.334-1.654z" fill="#e6e6e6"/><path d="M361.909 195.772H180.055a3.603 3.603 0 01-3.595-3.603v-25.644h189.044v25.644a3.603 3.603 0 01-3.595 3.603z" fill="#ccc"/><path d="M365.694 178.645h-189.4V68.92a4.348 4.348 0 014.344-4.344H361.35a4.348 4.348 0 014.344 4.344z" fill="#3f3d56"/><path d="M354.382 170.681H187.606a3.352 3.352 0 01-3.348-3.348V75.89a3.352 3.352 0 013.348-3.349h166.776a3.352 3.352 0 013.348 3.349v91.443a3.352 3.352 0 01-3.348 3.348z" fill="#fff"/><path d="M541.34 83.039a11.025 11.025 0 0112.59 11.28l36.566 14.075-16.566 11.837-32.183-15.18a11.085 11.085 0 01-.408-22.012z" fill="#9e616a"/><path d="M680.177 76.13l6.186 11.246a32.296 32.296 0 01-10.963 18.211c-9.47 7.988-58.991 37.737-58.991 37.737l-62.518-31.386 10.937-14.533 49.082 16.45a160.767 160.767 0 0164.164-37.094z" fill="#e4e4e4"/><ellipse cx="668.675" cy="246.336" rx="48.791" ry="15.898" fill="#cacaca"/><path fill="#9e616a" d="M559.217 447.105l-12.956-3.581 7.648-51.678 19.122 5.287-13.814 49.972z"/><path d="M559.05 460.577l-41.776-11.548.146-.528a16.87 16.87 0 0120.755-11.766l25.516 7.054z" fill="#2f2e41"/><path fill="#9e616a" d="M521.653 447.273l-12.297-5.43 15.092-50.012 18.148 8.013-20.943 47.429z"/><path d="M519.526 460.577l-39.649-17.507.221-.502a16.87 16.87 0 0122.247-8.618l24.217 10.693zm187.12-253.11s6.518 20.193-33.471 45.73l-51.501 51.319-53.513 128.006-31.77-14.243 6.232-16.632 4.18-11.16 2.14-5.71 2.293-6.121 34.012-90.787 28.57-50.023.828-27.143 7.028-19.134 50.983-18.091z" fill="#2f2e41"/><path d="M680.646 208.467s6.518 20.193-33.471 45.73l-51.501 51.319-53.513 128.006-31.77-14.243 6.232-16.632 4.18-11.16 2.14-5.71 2.293-6.121 34.012-90.787 9.566-16.749a305.08 305.08 0 0145.646-60.815l9.378-9.694 1-15 21.82-12.133z" fill="#2f2e41"/><path d="M649.838 109.611l16-34 27.921-3.809s21.803 27.777 16.079 66.81c-2.147 14.636-3.896 29.208-4 42-.028 3.403 2.95 4.922 3 8 .05 3.022-5.643 7.945-4 10a17.53 17.53 0 014 10c-1.982 4.715-61.956-20.835-87.164-17.043z" fill="#e4e4e4"/><circle cx="862.949" cy="260.492" r="25.255" transform="rotate(-59.271 573.145 322.663)" fill="#9e616a"/><path d="M683.933 32.713a529.79 529.79 0 01-.192 2.54 13.191 13.191 0 002.199 7.68c1.413 2.39-.273 16.821-.273 16.821 41.368-28.836 8.68-57.807-4.105-55.232.267-3.667-10.162-2.214-10.162-2.214-3.973-6.188-12.681 2.026-12.681 2.026l1.68-2.827c-6.761 1.72-13.444 22.615-13.444 22.615 2.293 9.015 37.245 4.924 36.978 8.591z" fill="#2f2e41"/><path d="M523.453 122.986a231.85 231.85 0 0033.323-62.191 5.955 5.955 0 00-2.812-7.169l-48.645-26.065a5.878 5.878 0 00-5.157-.21 5.978 5.978 0 00-3.407 3.992 141.635 141.635 0 01-31.067 57.982 5.977 5.977 0 00-1.437 5.047 5.878 5.878 0 003.03 4.178l48.646 26.065a5.955 5.955 0 007.526-1.629z" fill="#ccc"/><path d="M520.133 120.492a1.797 1.797 0 01-2.245.463L469.243 94.89a1.725 1.725 0 01-.904-1.242 1.825 1.825 0 01.45-1.561 145.803 145.803 0 0031.983-59.69 1.825 1.825 0 011.05-1.24 1.726 1.726 0 011.536.064l48.645 26.065a1.797 1.797 0 01.857 2.128 227.698 227.698 0 01-32.727 61.078z" fill="#fff"/><path d="M503.115 55.986l33.552 19.666c3.338 1.956 6.361-3.228 3.028-5.181l-33.552-19.666c-3.338-1.957-6.361 3.227-3.028 5.18zm-6 11l33.552 19.666c3.338 1.956 6.361-3.228 3.028-5.181l-33.552-19.666c-3.338-1.957-6.361 3.227-3.028 5.18zm-7 12l33.552 19.666c3.338 1.956 6.361-3.228 3.028-5.181l-33.552-19.666c-3.338-1.957-6.361 3.227-3.028 5.18zm-7 10l33.552 19.666c3.338 1.956 6.361-3.228 3.028-5.181l-33.552-19.666c-3.338-1.957-6.361 3.227-3.028 5.18zM636.07 204.664l12.596 28.325a4.469 4.469 0 01-.32 4.244 4.48 4.48 0 01-4.54 2.02 4.128 4.128 0 01-.867-.233 4.512 4.512 0 01-2.497-2.374l-12.596-28.325a4.5 4.5 0 118.223-3.657z" fill="#6c63ff"/><path d="M647.65 230.705l2.523 5.717 1.29 8.105a2.451 2.451 0 01-4.328 1.925l-5.222-6.498-2.487-5.592zm-22.603-33.922l1.805 11.34a2.452 2.452 0 003.418 1.856l1.79-.796 3.454 7.767a1 1 0 001.827-.813l-3.454-7.767 1.79-.795a2.455 2.455 0 001.248-3.233 2.468 2.468 0 00-.336-.549l-7.212-8.935a2.453 2.453 0 00-4.33 1.925z" fill="#3f3d56"/><path d="M630.272 217.252a11.025 11.025 0 0114.67-8.402l24.867-30.278 6.021 19.449-24.536 25.771a11.085 11.085 0 01-21.022-6.54z" fill="#9e616a"/><path d="M661.577 215.284l-10.952-15.82L681.724 158l-16.02-34.33 1.166-40.835 13.238-2.445.165.082a32.537 32.537 0 0114.1 16.423c3.302 8.256 10.674 39.25 14.775 56.99a20.68 20.68 0 01-5.56 19.39z" fill="#e4e4e4"/><path d="M353.214 138.846a14.719 14.719 0 00-.09 2.315l-56.074 40.794-15.404-6.817-13.328 21.903 26.098 14.72a11.186 11.186 0 0013.311-1.742l56.436-55.123a14.677 14.677 0 10-10.95-16.05z" fill="#ffb6b6"/><path d="M295.237 183.447l-16.352 27.248a6.292 6.292 0 01-9.388 1.624l-24.483-20.107a17.474 17.474 0 0118.07-29.913l29.17 12.099a6.292 6.292 0 012.983 9.049z" fill="#6c63ff"/><path fill="#cacaca" d="M257.227 420.283h-32.052v-53.115h32.052z"/><path fill="#cacaca" d="M251.506 401.336l4.114-6.063 76.927 52.2-4.114 6.063zm-101.652 46.137l76.926-52.2 4.115 6.063-76.927 52.2z"/><circle cx="330.489" cy="450.504" r="10.074" fill="#cacaca"/><circle cx="240.742" cy="450.504" r="10.074" fill="#cacaca"/><circle cx="151.911" cy="450.504" r="10.074" fill="#cacaca"/><path fill="#cacaca" d="M237.079 398.304h7.326v52.2h-7.326zm10.99-7.326h-13.737v-70.515h13.737z"/><path d="M201.822 331.452v-16.484a11.46 11.46 0 0111.447-11.448h61.357a11.46 11.46 0 0111.448 11.448v16.484a11.46 11.46 0 01-11.448 11.447H213.27a11.46 11.46 0 01-11.447-11.447z" fill="#3f3d56"/><path fill="#ffb8b8" d="M312.641 444.129l16.968-.001 8.074-44.011-25.044.001.002 44.011z"/><path d="M308.313 460.577l54.715-.002v-.692a21.296 21.296 0 00-21.295-21.296h-.003l-33.418.001zm29.708-43.74l33.83-75.86a27.801 27.801 0 00-12.207-35.689l-73.377-39.347-33.483-2.848-30.886-2.808-.223.377c-.285.481-6.926 11.952-2.437 24.53 3.405 9.54 12.262 16.991 26.325 22.148 32.823 12.035 70.74 22.322 85.52 26.185a4.777 4.777 0 013.06 2.435 4.842 4.842 0 01.272 3.874l-31.429 70.61a6.228 6.228 0 005.273 8.346l23.483 1.71q.3.028.596.028a6.224 6.224 0 005.683-3.691z" fill="#2f2e41"/><path fill="#ffb8b8" d="M301.568 444.129l16.968-.001 8.074-44.011-25.044.001.002 44.011z"/><path d="M297.24 460.577l54.715-.002v-.692a21.296 21.296 0 00-21.295-21.296h-.003l-33.418.001zm28.324-39.587l33.83-75.861a27.801 27.801 0 00-12.207-35.689l-73.377-39.347-33.483-2.848-24.192-2.099.003-.331c-.284.48-6.925 11.951-2.436 24.529 3.405 9.54 5.34 16.992 19.403 22.148 32.824 12.036 70.742 22.322 85.52 26.185a4.777 4.777 0 013.06 2.436 4.842 4.842 0 01.273 3.874l-31.43 70.61a6.228 6.228 0 005.273 8.345l23.484 1.71q.3.029.596.029a6.224 6.224 0 005.683-3.692z" fill="#2f2e41"/><circle cx="466.433" cy="305.085" r="33.995" transform="rotate(-76.623 230.44 319.238)" fill="#ffb8b8"/><path d="M388.453 216.986a231.85 231.85 0 0033.323-62.191 5.955 5.955 0 00-2.812-7.169l-48.645-26.065a5.878 5.878 0 00-5.157-.21 5.978 5.978 0 00-3.407 3.992 141.635 141.635 0 01-31.067 57.982 5.977 5.977 0 00-1.437 5.047 5.878 5.878 0 003.03 4.178l48.646 26.065a5.955 5.955 0 007.526-1.629z" fill="#ccc"/><path d="M385.133 214.492a1.797 1.797 0 01-2.245.463l-48.645-26.065a1.725 1.725 0 01-.904-1.242 1.825 1.825 0 01.45-1.561 145.803 145.803 0 0031.983-59.69 1.825 1.825 0 011.05-1.24 1.726 1.726 0 011.536.064l48.645 26.065a1.797 1.797 0 01.857 2.128 227.698 227.698 0 01-32.727 61.078z" fill="#fff"/><path d="M368.115 149.986l33.552 19.666c3.338 1.956 6.361-3.228 3.028-5.181l-33.552-19.666c-3.338-1.957-6.361 3.227-3.028 5.18zm-6 11l33.552 19.666c3.338 1.956 6.361-3.228 3.028-5.181l-33.552-19.666c-3.338-1.957-6.361 3.227-3.028 5.18zm-4.715 10.957l30.515 18.114c3.036 1.803 6.283-1.923 3.251-3.723l-30.514-18.115c-3.036-1.802-6.283 1.924-3.251 3.724zm-9.285 11.043l33.552 19.666c3.338 1.956 6.361-3.228 3.028-5.181l-33.552-19.666c-3.338-1.957-6.361 3.227-3.028 5.18z" fill="#ccc"/><path d="M290.872 268.694l-67.274-.402-.018-.479c-1.283-33.754 2.842-64.33 12.611-93.474.138-1.091.288-2.257.434-3.402 1.669-13.039 2.994-23.391 15.393-27.247a8.815 8.815 0 01-1.752-4.734 8.613 8.613 0 012.145-6.3 8.283 8.283 0 015.753-2.806l23.945-.816a5.604 5.604 0 013.477 1.179 9.559 9.559 0 012.783 12.077c-.282.561-.39.817-.43.929.85 4.46 3.376 9.757 6.049 15.364 3.827 8.027 8.165 17.125 9.28 26.858a49.127 49.127 0 01-.741 15.75 31.037 31.037 0 00-.342 8.452c.219 4.182.425 8.13-1.938 11.949a69.15 69.15 0 01-2.101 3.361l-3.325 7.948z" fill="#6c63ff"/><path d="M189.916 315.93V178.47a16.914 16.914 0 0116.895-16.895h4.673a16.914 16.914 0 0116.895 16.895v137.46a16.914 16.914 0 01-16.895 16.896h-4.673a16.914 16.914 0 01-16.895-16.896z" fill="#3f3d56"/><path d="M370.32 192.189a14.718 14.718 0 00-1.299 1.919l-69.158 5.05-9.485-13.922-22.881 11.568 14.396 26.278a11.186 11.186 0 0012.225 5.547l77.03-17.029a14.677 14.677 0 10-.828-19.411z" fill="#ffb6b6"/><path d="M297.536 199.467l-28.271 14.511a6.292 6.292 0 01-8.832-3.575l-10.18-30.002a17.465 17.465 0 017.608-23.435c-12.532 6.432 13.568-11.84 23.53 7.568l18.388 25.673a6.292 6.292 0 01-2.243 9.26z" fill="#6c63ff"/><path d="M255.913 119.438c-2.046 0-4.303-.986-6.849-2.984A43.513 43.513 0 01235.8 65.429c1.85-4.421 5.312-10.43 11.292-13.952 4.299-2.53 9.349-3.444 13.745-4.102a181.72 181.72 0 0111.453-1.348c4.533-.387 9.77-.65 14.546 1.165 3.5 1.33 6.478 3.679 9.358 5.95 1.004.791 2.042 1.61 3.082 2.369a22.697 22.697 0 008.528 4.141 4.671 4.671 0 013.126 2.29 4.754 4.754 0 01.334 3.929c-.45 1.26-.855 2.395-.034 3.626a3.24 3.24 0 002.706 1.379 1.677 1.677 0 011.418.74 1.71 1.71 0 01.186 1.59l-.132.339a2.18 2.18 0 011.7 1.106 2.235 2.235 0 01-.41 2.768 22.404 22.404 0 01-10.918 5.714 21.82 21.82 0 01-8.499-.02l-.451-.088.055-.5c-11.344-4.046-21.584 2.82-27.421 10.67l-.843-.532a2.42 2.42 0 00.107-1.897 2.94 2.94 0 00-1.456-1.72 3.808 3.808 0 00-4.144.827 5.652 5.652 0 00-1.55 4.286 15.34 15.34 0 001.252 4.806c.274.728.558 1.482.79 2.242a18.311 18.311 0 01-.968 13.035c-.884 1.86-2.482 4.232-5.076 4.968a6.071 6.071 0 01-1.662.228z" fill="#2f2e41"/><path d="M808.485 462.577H1.19a1.19 1.19 0 010-2.38h807.294a1.19 1.19 0 010 2.38z" fill="#cacaca"/></svg>