<svg xmlns="http://www.w3.org/2000/svg" data-name="Layer 1" width="758.67" height="615.326"><path d="M605.665 112.083c-3.94 43.424-15.168 89.211-32.777 133.39-21.776 54.633-51.526 102.753-86.037 139.159l-1.915-1.67c34.344-36.23 63.959-84.139 85.643-138.546 19.598-49.166 31.254-100.331 33.725-147.941l2.447.41q-.39 7.542-1.086 15.198zm15.697 252.195c-48.473 77.116-107.28 132.216-165.59 155.148l-1.18-2.163c57.907-22.774 116.37-77.591 164.621-154.355z" fill="#f2f2f2"/><path d="M604.489 166.147c-3.941 43.423-15.169 89.21-32.778 133.39-21.775 54.633-51.526 102.753-86.036 139.159l-1.915-1.67c34.343-36.23 63.959-84.139 85.643-138.546 19.597-49.166 31.254-100.332 33.724-147.942l2.448.41q-.39 7.542-1.086 15.199z" fill="#f2f2f2"/><path d="M60.326 277.628H28.522a4.5 4.5 0 01-3.535-1.703 4.408 4.408 0 01-.862-3.745 86.49 86.49 0 00-.556-40.537 4.509 4.509 0 011.75-4.738c16.353-11.762 29.232-11.42 38.28 1.016a4.52 4.52 0 01.79 1.91 141.54 141.54 0 01.397 43.925 4.49 4.49 0 01-4.46 3.872z" fill="#e6e6e6"/><path d="M50.466 245.779h-10.94a2.281 2.281 0 010-4.562h10.94a2.281 2.281 0 010 4.562zm0 8h-10.94a2.281 2.281 0 010-4.562h10.94a2.281 2.281 0 010 4.562zm0 8h-10.94a2.281 2.281 0 010-4.562h10.94a2.281 2.281 0 010 4.562z" fill="#fff"/><path d="M638.326 419.628h-31.804a4.5 4.5 0 01-3.535-1.703 4.408 4.408 0 01-.862-3.745 86.49 86.49 0 00-.556-40.537 4.509 4.509 0 011.75-4.738c16.353-11.762 29.232-11.42 38.28 1.016a4.52 4.52 0 01.79 1.91 141.54 141.54 0 01.397 43.925 4.49 4.49 0 01-4.46 3.872z" fill="#e6e6e6"/><path d="M628.466 387.779h-10.94a2.281 2.281 0 010-4.562h10.94a2.281 2.281 0 010 4.562zm0 8h-10.94a2.281 2.281 0 010-4.562h10.94a2.281 2.281 0 010 4.562zm0 8h-10.94a2.281 2.281 0 010-4.562h10.94a2.281 2.281 0 010 4.562z" fill="#fff"/><path d="M758.67 614.136a1.186 1.186 0 01-1.19 1.19H1.19a1.19 1.19 0 010-2.38h756.29a1.187 1.187 0 011.19 1.19z" fill="#ccc"/><path d="M199.504 541.276l-1.984-27.588a89.244 89.244 0 00-41.899-9.396c20.432 15.793 18.795 47.357 32.945 68.96a53.68 53.68 0 0040.028 23.721l17.004 9.782a89.952 89.952 0 00-20.944-72.346 86.888 86.888 0 00-16.368-14.395c-3.717 10.671-8.782 21.262-8.782 21.262zm359.663 4l1.983-27.588a89.244 89.244 0 0141.899-9.396c-20.432 15.793-18.795 47.357-32.945 68.96a53.68 53.68 0 01-40.028 23.721l-17.004 9.782a89.952 89.952 0 0120.944-72.346 86.888 86.888 0 0116.368-14.395c3.717 10.671 8.783 21.262 8.783 21.262z" fill="#f2f2f2"/><circle cx="370.335" cy="214.942" r="19" fill="#6c63ff"/><path d="M380.088 207.024a1.537 1.537 0 00-2.12 0 62.934 62.934 0 00-10.783 11.013l-2.304-4.46c-.887-1.715-3.477-.2-2.59 1.515l3.37 6.522a1.518 1.518 0 002.59 0 60.748 60.748 0 0111.838-12.469 1.51 1.51 0 000-2.121z" fill="#fff"/><path d="M285.32 268.82l-28.652-44.996 33.178-17.769 8.708 34.33 61.355 33.155a13.266 13.266 0 11-7.55 18.048z" fill="#a0616a"/><path d="M235.735 169.856c-9.002 13.218 22.99 61.263 22.99 61.263 1.559-3.36 16.457 34.366 18.953 32.137 7.092-6.334 18.194-23.976 24.365-24.763 3.529-.45-8.185-25.478-8.185-25.478s-5.354-14.78-12.618-33.659a33.903 33.903 0 00-24.626-21.535s-11.876-1.183-20.879 12.035z" fill="#3f3d56"/><path fill="#a0616a" d="M236.175 600.491l13.607-.001 6.473-52.485-20.083.001.003 52.485z"/><path d="M232.703 596.048h3.83l14.954-6.081 8.014 6.08h.001a17.078 17.078 0 0117.078 17.077v.555l-43.876.002z" fill="#2f2e41"/><path fill="#a0616a" d="M299.391 600.491l13.607-.001 6.474-52.485-20.083.001.002 52.485z"/><path d="M295.92 596.048h3.83l14.953-6.081 8.015 6.08a17.078 17.078 0 0117.078 17.077v.555l-43.875.002zm9.361-282.496l-88.507 2.212c-16.81 9.13-17.065 28.891-11.557 52.353 0 0-1.86 13.945 1.86 17.663s5.577 3.719 3.718 10.226 7.964 17.137 6.77 18.33-3.981 7.7-3.981 7.7l9.296 52.991s6.508 92.036 8.367 93.895 3.719 0 1.86 4.649-3.72 2.789-1.86 4.648a68.471 68.471 0 014.648 5.578h22.477s1.694-9.297 1.694-10.226 1.86-6.508 1.86-7.438-1.644-2.573-1.644-2.573a30.585 30.585 0 01-1.145-5.793c0-1.86-5.578-73.443-5.578-73.443l11.156-92.966 26.96 91.106s0 79.95 1.859 81.81 1.86.93.93 4.648-4.649 2.79-1.86 5.578 3.719-1.859 2.79 2.79l-.93 4.648 27.89.399s3.718-7.837 1.859-10.626-1.748-2.027.52-6.591 3.198-5.494 2.269-6.424-.93-5.874-.93-5.874l-4.648-88.95s-.93-93.896-.93-96.685a9.273 9.273 0 01.772-4.182v-3.786l-3.56-13.414z" fill="#2f2e41"/><circle cx="252.113" cy="102.015" r="27.5" fill="#a0616a"/><path d="M265.863 147.69c5.925 3.522 9.469 9.994 11.503 16.579a157.109 157.109 0 016.752 37.537l2.148 38.141 26.613 81.214c-23.064 19.516-109.76 4.436-109.76 4.436s-2.66-.887 0-3.549 5.253-.303 2.591-2.965-.826.304.06-2.357 0-.887-.886-1.774 6.867-8.871 6.867-8.871l-7.097-46.618-8.87-94.031c10.645-13.306 32.053-21.15 32.053-21.15l5.532-9.957 27.658 2.212z" fill="#3f3d56"/><path d="M274.783 87.405a12.744 12.744 0 014.527 6.36 89.513 89.513 0 00.059-12.479c-.324-2.92-2.38-3.577-4.76-4.338-2.15-.688-4.582-1.465-5.236-4.3-8.645-8.41-23.693-7.985-33.991-5.052-5.667 1.614-8.928 3.688-9.22 4.903l-.06.25-.23.115c-4.368 2.184-5.218 9.081-5.162 14.482.106 10.176 3.62 21.733 5.599 22.672.105.05.131.03.177-.007 2.98-2.382 6.616.18 8.214 1.574a28.6 28.6 0 0125.61-24.26 44.879 44.879 0 006.172-1.035 12.995 12.995 0 013.153-.414 8.974 8.974 0 015.148 1.53z" fill="#2f2e41"/><path d="M445.497 335.464l52.9-53.718 13.937-42.963-22.428-9.072c-11.11 11.207-22.548 45.515-22.548 45.515l-36.105 48.458c-.288.107-.576.22-.86.355a10.687 10.687 0 1015.104 11.425z" fill="#ffb8b8"/><path d="M483.788 234.626l28.363 8.205.106-.02c10.425-2.025 18.672-19.351 23.755-33.53a19.596 19.596 0 00-10.615-24.557 19.64 19.64 0 00-20.495 3.125l-14.142 12.178z" fill="#6c63ff"/><path fill="#ffb8b8" d="M459.521 598.895l-15.254-.001-7.256-58.835 22.512.001-.002 58.835z"/><path d="M463.412 593.915h-4.293l-16.763-6.817-8.984 6.815h-.001a19.145 19.145 0 00-19.144 19.144v.622l49.184.002z" fill="#2f2e41"/><path fill="#ffb8b8" d="M527.204 598.895l-15.254-.001-7.256-58.835 22.513.001-.003 58.835z"/><path d="M531.095 593.915h-4.293l-16.763-6.817-8.984 6.815h-.001a19.145 19.145 0 00-19.144 19.144v.622l49.184.002zm19.368-248.445s1.781 21.373-2.672 41.856-4.453 78.17-4.453 78.17l-9.796 112.412-29.389-2.672-8.015-187.91-28.498 63.23 2.672 8.906-3.559 2.227s2.668 17.366.887 17.366-6.234 2.671-6.234 2.671l3.562 91.729-30.279-.89-10.687-129.133 11.578-73.917.89-14.25 4.008.166 2.04-5.954 3.749-10.241z" fill="#2f2e41"/><path d="M552.002 349.959l.159-.223c8.477-11.868-4.272-40.386-6.195-44.52l8.099-2.628-1.824-15.503-.864-6.911 6.19-6.19.017-.155 3.563-31.17 5.18-20.702a45.452 45.452 0 00-12.901-44.048l-11.973-11.288-14.55-21.53H503.44l-8.045 15.197a34.199 34.199 0 00-26.46 34.917l1.823 39.855-7.138 49.623-.005 8.98-8.033 8.928 1.754 8.77-6.113 2.62-2.7 12.597c-1.117 1.474-8.49 11.306-8.49 13.993 0 .404.297.794.937 1.227 5.025 3.402 32.8 10.34 45.092 5.42 13.094-5.235 65.145 2.62 65.67 2.7z" fill="#6c63ff"/><circle cx="512.141" cy="107.068" r="31.074" fill="#ffb8b8"/><path d="M509.164 138.645a84.513 84.513 0 0014.346-1.375c4.686-1.08 15.027-9.076 17.845-13.8 2.094-3.51 3.35-8.938 4.037-12.874a37.78 37.78 0 00-7.38-29.811 11.936 11.936 0 00-4.925-3.989 5.89 5.89 0 00-.535-.165 14.727 14.727 0 01-7.44-4.342 12.145 12.145 0 00-1.25-1.222 18.14 18.14 0 00-7.663-3.603c-4.529-1.088-11.007.275-19.254 4.054-4.143 1.898-8.741 1.369-12.286.695a1.154 1.154 0 00-1.076.4 8.144 8.144 0 01-5.477 2.349c-1.258.088-2.535 1.866-4.074 4.182-.349.526-.756 1.14-1.052 1.514l-.06-.703-.691.804a9.883 9.883 0 004.876 15.98 19.273 19.273 0 003.89.518c.795.05 1.618.103 2.407.22a14.9 14.9 0 0111.319 9.38 3.897 3.897 0 005.928 1.739 6.438 6.438 0 015.837-1.22 4.274 4.274 0 011.944 2.094 5.57 5.57 0 002.176 2.41c3.235 1.564 3.644 8.85 2.654 14.96-.954 5.888-3.03 10.183-5.047 10.445-1.554.201-1.729.317-1.834.595l-.095.249.181.226a6.364 6.364 0 002.699.29z" fill="#2f2e41"/><path d="M483.383 237.95l-14.937-19.033c-15.215 4.19-42.211 28.253-42.211 28.253l-55.442 24.06a10.681 10.681 0 106.49 17.306l72.626-20.262z" fill="#ffb8b8"/><path d="M479.803 242.3l23.568-26.272 1.308-18.616a19.641 19.641 0 00-9.747-18.299 19.595 19.595 0 00-26.032 6.171c-8.328 12.551-17.286 29.52-12.677 39.087l.047.097z" fill="#6c63ff"/><path d="M262.58 341.05l-61.255-31.371c-4.357-2.232-5.8-8.15-3.217-13.194l39.939-77.984c2.583-5.043 8.23-7.331 12.586-5.1l61.255 31.371c4.357 2.232 5.8 8.15 3.217 13.194l-39.94 77.984c-2.582 5.044-8.229 7.331-12.586 5.1z" fill="#e6e6e6"/><path d="M252.113 326.628l-41.617-21.314c-4.08-2.09-5.432-7.633-3.013-12.356l33.18-64.788c2.42-4.724 7.708-6.866 11.789-4.776l50.265 25.743c4.08 2.09 5.432 7.633 3.013 12.356l-18.026 35.196c-10.776 21.04-17.414 39.248-35.59 29.94z" fill="#fff"/><path d="M272.69 291.248l-36.862-18.879a2.305 2.305 0 012.08-4.06l36.861 18.878a2.305 2.305 0 01-2.08 4.06zm-32.558-6.548l-8.412-4.308a2.306 2.306 0 012.08-4.06l8.411 4.307a2.306 2.306 0 01-2.08 4.061zm10.79 15.653l-23.311-11.939a2.306 2.306 0 012.08-4.06L253 296.292a2.306 2.306 0 01-2.079 4.06zm36.355-37.587l-36.862-18.879a2.305 2.305 0 012.08-4.06l36.861 18.878a2.305 2.305 0 01-2.08 4.06zm-32.558-6.548l-8.412-4.308a2.306 2.306 0 012.08-4.06l8.411 4.307a2.306 2.306 0 01-2.08 4.061zm10.791 15.652l-23.312-11.938a2.306 2.306 0 012.08-4.06l23.31 11.938a2.306 2.306 0 01-2.079 4.06z" fill="#6c63ff"/><path d="M211.82 273.158l-13.838-51.518 36.98-7-1.989 35.361 48.588 50.03a13.266 13.266 0 11-12.615 14.953z" fill="#a0616a"/><path d="M194.198 163.879c-12.552 9.91 3.559 65.337 3.559 65.337 2.494-2.737 5.393 37.72 8.441 36.342 8.666-3.915 24.548-17.416 30.67-16.315 3.502.63-.166-26.76-.166-26.76s-.675-15.705-1.943-35.894a33.903 33.903 0 00-17.034-27.93s-10.975-4.69-23.527 5.22z" fill="#3f3d56"/><path d="M403.054 387.504l-33.426-15.784a5.231 5.231 0 01-2.87-3.544 5.124 5.124 0 01.952-4.365 100.58 100.58 0 0019.413-42.253 5.197 5.197 0 015.092-4.19c17.048.057 29.789 6.282 37.868 18.499a5.261 5.261 0 01.688 4.375 164.527 164.527 0 01-21.108 45.407 5.22 5.22 0 01-6.61 1.855z" fill="#e6e6e6"/><path d="M412.887 365.366l-25.558-12.069a2.651 2.651 0 112.264-4.795l25.558 12.07a2.651 2.651 0 11-2.264 4.794zm3.97-8.408L391.3 344.889a2.651 2.651 0 012.264-4.795l25.559 12.069a2.651 2.651 0 01-2.265 4.795z" fill="#fff"/><path d="M382.706 93.015l-2.379.26c-10.608-41.684-31.168-70.562-59.462-83.513-35.967-16.464-80.443-5.408-125.234 31.13-45.018 36.724-84.871 94.733-112.217 163.343l-2.308-1.057C108.57 134.268 148.629 75.98 193.9 39.051 239.398 1.936 284.78-9.2 321.69 7.694c29.104 13.322 50.203 42.826 61.016 85.321z" fill="#f2f2f2"/><path d="M120.232 147.304a691.968 691.968 0 00-17.59 40.358C71.283 266.344 55.39 346.699 56.69 420.045l-2.451-.261c-1.3-73.619 14.638-154.251 46.096-233.179a693.856 693.856 0 0117.64-40.472z" fill="#f2f2f2"/><path d="M119.056 201.367a691.965 691.965 0 00-17.59 40.358c-31.36 78.683-47.252 159.038-45.954 232.384l-2.45-.262c-1.3-73.618 14.637-154.25 46.096-233.178a693.862 693.862 0 0117.64-40.472z" fill="#f2f2f2"/><ellipse cx="265.356" cy="357.719" rx="8.857" ry="10.195" transform="rotate(-56.364 22.195 492.476)" fill="#ccc"/><ellipse cx="842.298" cy="504.788" rx="8.857" ry="10.195" transform="rotate(-56.364 599.137 639.545)" fill="#ccc"/></svg>